<svg width="20" height="20" viewBox="0 0 20 20" fill="none" xmlns="http://www.w3.org/2000/svg">
<path d="M1.35288 13.0496L0.622697 13.2209L1.35288 13.0496ZM1.35288 6.95043L0.622697 6.77915L1.35288 6.95043ZM18.6471 6.95044L17.9169 7.12171L18.6471 6.95044ZM18.6471 13.0496L17.9169 12.8783L18.6471 13.0496ZM13.0496 18.6471L12.8783 17.9169L13.0496 18.6471ZM6.95044 18.6471L7.12171 17.9169L6.95044 18.6471ZM6.95043 1.35288L7.12171 2.08306L6.95043 1.35288ZM13.0496 1.35288L12.8783 2.08306L13.0496 1.35288ZM12.7514 1.34241C12.5661 0.971929 12.1156 0.82176 11.7451 1.007C11.3747 1.19224 11.2245 1.64275 11.4097 2.01323L12.7514 1.34241ZM12.6103 2.73741L13.2812 2.402L12.6103 2.73741ZM17.2626 7.38966L16.9272 8.06048L17.2626 7.38966ZM17.9868 8.59028C18.3573 8.77552 18.8078 8.62535 18.993 8.25487C19.1782 7.88438 19.0281 7.43388 18.6576 7.24864L17.9868 8.59028ZM8.59027 2.01323C8.77552 1.64274 8.62535 1.19224 8.25486 1.007C7.88438 0.821756 7.43387 0.971925 7.24863 1.34241L8.59027 2.01323ZM7.38966 2.7374L6.71884 2.40199L7.38966 2.7374ZM2.73741 7.38966L2.402 6.71884H2.402L2.73741 7.38966ZM1.34242 7.24863C0.971932 7.43388 0.821764 7.88438 1.00701 8.25486C1.19225 8.62535 1.64275 8.77552 2.01324 8.59027L1.34242 7.24863ZM7.62654 16.2838L8.36349 16.4231L7.62654 16.2838ZM7.64666 16.1774L8.3836 16.3167L7.64666 16.1774ZM12.3533 16.1774L11.6164 16.3167L11.6164 16.3167L12.3533 16.1774ZM12.3735 16.2838L13.1104 16.1445V16.1445L12.3735 16.2838ZM12.072 18.5889L12.7483 18.913H12.7483L12.072 18.5889ZM11.2742 18.5182C11.0952 18.8917 11.2528 19.3396 11.6264 19.5187C11.9999 19.6977 12.4478 19.54 12.6268 19.1665L11.2742 18.5182ZM7.92801 18.5889L7.25168 18.913L7.92801 18.5889ZM7.37316 19.1665C7.55218 19.54 8.00011 19.6977 8.37364 19.5187C8.74717 19.3396 8.90484 18.8917 8.72582 18.5182L7.37316 19.1665ZM9.33533 14.3442L9.13612 13.6212L9.33533 14.3442ZM10.6647 14.3442L10.8639 13.6212L10.6647 14.3442ZM2.08306 12.8783C1.63898 10.9851 1.63898 9.01488 2.08306 7.12171L0.622697 6.77915C0.125768 8.89763 0.125768 11.1024 0.622697 13.2209L2.08306 12.8783ZM17.9169 7.12171C18.361 9.01488 18.361 10.9851 17.9169 12.8783L19.3773 13.2208C19.8742 11.1024 19.8742 8.89764 19.3773 6.77916L17.9169 7.12171ZM12.8783 17.9169C10.9851 18.361 9.01488 18.361 7.12171 17.9169L6.77916 19.3773C8.89764 19.8742 11.1024 19.8742 13.2208 19.3773L12.8783 17.9169ZM7.12171 2.08306C9.01488 1.63898 10.9851 1.63898 12.8783 2.08306L13.2208 0.622696C11.1024 0.125768 8.89763 0.125768 6.77916 0.622696L7.12171 2.08306ZM7.12171 17.9169C4.62161 17.3305 2.6695 15.3784 2.08306 12.8783L0.622697 13.2209C1.33924 16.2756 3.72441 18.6608 6.77916 19.3773L7.12171 17.9169ZM13.2208 19.3773C16.2756 18.6608 18.6608 16.2756 19.3773 13.2208L17.9169 12.8783C17.3305 15.3784 15.3784 17.3305 12.8783 17.9169L13.2208 19.3773ZM12.8783 2.08306C15.3784 2.6695 17.3305 4.62161 17.9169 7.12171L19.3773 6.77916C18.6608 3.72441 16.2756 1.33924 13.2208 0.622696L12.8783 2.08306ZM6.77916 0.622696C3.72441 1.33924 1.33924 3.72441 0.622697 6.77915L2.08306 7.12171C2.6695 4.6216 4.62161 2.6695 7.12171 2.08306L6.77916 0.622696ZM11.4097 2.01323L11.9395 3.07282L13.2812 2.402L12.7514 1.34241L11.4097 2.01323ZM16.9272 8.06048L17.9868 8.59028L18.6576 7.24864L17.598 6.71884L16.9272 8.06048ZM11.9395 3.07282C13.0187 5.23118 14.7688 6.9813 16.9272 8.06048L17.598 6.71884C15.7299 5.78481 14.2152 4.27007 13.2812 2.402L11.9395 3.07282ZM7.24863 1.34241L6.71884 2.40199L8.06048 3.07281L8.59027 2.01323L7.24863 1.34241ZM2.402 6.71884L1.34242 7.24863L2.01324 8.59027L3.07282 8.06048L2.402 6.71884ZM6.71884 2.40199C5.78481 4.27007 4.27008 5.7848 2.402 6.71884L3.07282 8.06048C5.23119 6.9813 6.98131 5.23118 8.06048 3.07281L6.71884 2.40199ZM8.36349 16.4231L8.3836 16.3167L6.90971 16.038L6.88959 16.1445L8.36349 16.4231ZM11.6164 16.3167L11.6365 16.4231L13.1104 16.1445L13.0903 16.038L11.6164 16.3167ZM11.3957 18.2647L11.2742 18.5182L12.6268 19.1665L12.7483 18.913L11.3957 18.2647ZM7.25168 18.913L7.37316 19.1665L8.72582 18.5182L8.60434 18.2647L7.25168 18.913ZM11.6365 16.4231C11.7544 17.047 11.6701 17.6922 11.3957 18.2647L12.7483 18.913C13.1608 18.0523 13.2877 17.0823 13.1104 16.1445L11.6365 16.4231ZM6.88959 16.1445C6.7123 17.0823 6.83916 18.0523 7.25168 18.913L8.60434 18.2647C8.32994 17.6922 8.24555 17.047 8.36349 16.4231L6.88959 16.1445ZM9.53453 15.0673C9.83917 14.9833 10.1608 14.9833 10.4655 15.0673L10.8639 13.6212C10.2985 13.4654 9.70151 13.4654 9.13612 13.6212L9.53453 15.0673ZM13.0903 16.038C12.8702 14.8736 12.0064 13.9359 10.8639 13.6212L10.4655 15.0673C11.0561 15.23 11.5026 15.7147 11.6164 16.3167L13.0903 16.038ZM8.3836 16.3167C8.4974 15.7147 8.94391 15.23 9.53453 15.0673L9.13612 13.6212C7.99359 13.9359 7.12984 14.8736 6.90971 16.038L8.3836 16.3167Z" fill="#3772FF"/>
</svg>
