<svg width="20" height="20" viewBox="0 0 20 20" fill="none" xmlns="http://www.w3.org/2000/svg">
<path d="M6.5 13.7409C6.5 12.7575 7.20862 11.9198 8.17166 11.7648C9.38289 11.5699 10.6171 11.5699 11.8283 11.7648C12.7914 11.9198 13.5 12.7575 13.5 13.7409V13.9586C13.5 14.5338 13.0376 15 12.4673 15H7.53269C6.96235 15 6.5 14.5338 6.5 13.9586V13.7409Z" stroke="#949494" stroke-width="1.5"/>
<path d="M12.0417 7.05882C12.0417 8.19588 11.1276 9.11765 10 9.11765C8.87242 9.11765 7.95833 8.19588 7.95833 7.05882C7.95833 5.92177 8.87242 5 10 5C11.1276 5 12.0417 5.92177 12.0417 7.05882Z" stroke="#949494" stroke-width="1.5"/>
<path d="M19 5C19 2.79086 16.7614 1 14 1M1 14C1 16.7614 2.79086 19 5 19M5 1C2.79086 1 1 2.79086 1 5M14 19C16.7614 19 19 16.7614 19 14" stroke="#949494" stroke-width="1.5" stroke-linecap="round"/>
</svg>
