<svg width="20" height="20" viewBox="0 0 20 20" fill="none" xmlns="http://www.w3.org/2000/svg">
<path d="M8.87 1.14669L8.67842 0.421568L8.67842 0.421568L8.87 1.14669ZM11.13 1.14669L10.9384 1.87181L10.9384 1.87181L11.13 1.14669ZM1.3835 14.403L2.10471 14.1972L1.3835 14.403ZM1.37998 8.93607L2.10118 9.14188L2.10118 9.14188L1.37998 8.93607ZM18.62 8.93607L19.3412 8.73026L19.3412 8.73026L18.62 8.93607ZM18.6165 14.403L19.3377 14.6088L18.6165 14.403ZM13.9929 18.6187L13.8509 17.8822L13.9929 18.6187ZM6.00711 18.6187L6.1491 17.8822L6.1491 17.8822L6.00711 18.6187ZM6.77297 4.56041L6.91496 5.29685L6.91496 5.29685L6.77297 4.56041ZM13.227 4.56041L13.369 3.82397L13.369 3.82397L13.227 4.56041ZM14.3006 4.7674L14.1586 5.50384L14.1586 5.50384L14.3006 4.7674ZM18.527 8.61021L17.8058 8.81602L17.8058 8.81602L18.527 8.61021ZM5.69941 4.7674L5.55742 4.03096L5.55742 4.03096L5.69941 4.7674ZM1.47297 8.6102L0.751761 8.40439L0.751761 8.40439L1.47297 8.6102ZM9.06157 1.87181C9.6763 1.7094 10.3237 1.7094 10.9384 1.87181L11.3216 0.421569C10.4557 0.192811 9.54427 0.19281 8.67842 0.421568L9.06157 1.87181ZM14.927 5.06315C14.927 2.88128 13.4419 0.981764 11.3216 0.421569L10.9384 1.87181C12.4126 2.26128 13.427 3.57456 13.427 5.06315L14.927 5.06315ZM6.57297 5.06315C6.57297 3.57455 7.58742 2.26128 9.06157 1.87181L8.67842 0.421568C6.55808 0.981763 5.07297 2.88127 5.07297 5.06315L6.57297 5.06315ZM5.8414 5.50384L6.91496 5.29685L6.63098 3.82397L5.55742 4.03096L5.8414 5.50384ZM13.085 5.29685L14.1586 5.50384L14.4426 4.03096L13.369 3.82397L13.085 5.29685ZM17.8058 8.81602L17.8988 9.14189L19.3412 8.73026L19.2482 8.40439L17.8058 8.81602ZM2.10118 9.14188L2.19418 8.81601L0.751761 8.40439L0.658768 8.73025L2.10118 9.14188ZM2.10471 14.1972C1.63385 12.5472 1.63087 10.79 2.10118 9.14188L0.658768 8.73025C0.111129 10.6493 0.115198 12.6917 0.662291 14.6088L2.10471 14.1972ZM17.8988 9.14188C18.3691 10.79 18.3662 12.5472 17.8953 14.1972L19.3377 14.6088C19.8848 12.6917 19.8889 10.6493 19.3412 8.73026L17.8988 9.14188ZM13.8509 17.8822C11.3077 18.3726 8.69228 18.3726 6.1491 17.8822L5.86512 19.3551C8.59589 19.8816 11.4041 19.8816 14.1349 19.3551L13.8509 17.8822ZM6.91496 5.29685C8.95235 4.90402 11.0477 4.90402 13.085 5.29685L13.369 3.82397C11.144 3.39498 8.85596 3.39498 6.63098 3.82397L6.91496 5.29685ZM6.1491 17.8822C4.20493 17.5074 2.63939 16.0709 2.10471 14.1972L0.662291 14.6088C1.3533 17.0303 3.36966 18.874 5.86512 19.3551L6.1491 17.8822ZM14.1349 19.3551C16.6303 18.874 18.6467 17.0303 19.3377 14.6088L17.8953 14.1972C17.3606 16.0708 15.7951 17.5074 13.8509 17.8822L14.1349 19.3551ZM14.1586 5.50384C15.9164 5.84275 17.3239 7.12718 17.8058 8.81602L19.2482 8.40439C18.6087 6.16326 16.747 4.47528 14.4426 4.03096L14.1586 5.50384ZM5.55742 4.03096C3.25297 4.47528 1.39132 6.16325 0.751761 8.40439L2.19418 8.81601C2.67613 7.12717 4.08361 5.84275 5.8414 5.50384L5.55742 4.03096ZM1.38575 9.79174C6.93989 11.8462 13.0601 11.8462 18.6143 9.79174L18.0939 8.3849C12.8755 10.3151 7.12447 10.3151 1.90612 8.3849L1.38575 9.79174Z" fill="#949494"/>
<path d="M6 8.5V12" stroke="#949494" stroke-width="1.5" stroke-linecap="round"/>
<path d="M14 8.5V12" stroke="#949494" stroke-width="1.5" stroke-linecap="round"/>
</svg>
