<svg width="20" height="20" viewBox="0 0 20 20" fill="none" xmlns="http://www.w3.org/2000/svg">
<path d="M1.35288 12.8117L2.08229 12.6372L1.35288 12.8117ZM1.35288 6.83297L2.08229 7.00752L1.35288 6.83297ZM18.6471 6.83298L17.9177 7.00752L18.6471 6.83298ZM18.6471 12.8117L17.9177 12.6372L18.6471 12.8117ZM13.0496 18.2988L12.8815 17.5679L13.0496 18.2988ZM6.95044 18.2988L6.78237 19.0297L6.95044 18.2988ZM6.95043 1.34591L7.1185 2.07684L6.95043 1.34591ZM13.0496 1.34591L12.8815 2.07684L13.0496 1.34591ZM2.08229 12.6372C1.63924 10.7857 1.63924 8.85901 2.08229 7.00752L0.62347 6.65843C0.12551 8.73941 0.12551 10.9053 0.62347 12.9863L2.08229 12.6372ZM17.9177 7.00752C18.3608 8.85901 18.3608 10.7857 17.9177 12.6372L19.3765 12.9863C19.8745 10.9053 19.8745 8.73941 19.3765 6.65844L17.9177 7.00752ZM12.8815 17.5679C10.9863 18.0036 9.01372 18.0036 7.1185 17.5679L6.78237 19.0297C8.89879 19.5164 11.1012 19.5164 13.2176 19.0297L12.8815 17.5679ZM7.1185 2.07684C9.01372 1.64105 10.9863 1.64105 12.8815 2.07684L13.2176 0.614985C11.1012 0.128338 8.89879 0.128339 6.78237 0.614985L7.1185 2.07684ZM7.1185 17.5679C4.61229 16.9916 2.66599 15.0765 2.08229 12.6372L0.62347 12.9863C1.34276 15.9922 3.73374 18.3287 6.78237 19.0297L7.1185 17.5679ZM13.2176 19.0297C16.2663 18.3287 18.6572 15.9922 19.3765 12.9863L17.9177 12.6372C17.334 15.0765 15.3877 16.9916 12.8815 17.5679L13.2176 19.0297ZM12.8815 2.07684C15.3877 2.65311 17.334 4.56823 17.9177 7.00752L19.3765 6.65844C18.6572 3.65253 16.2663 1.31598 13.2176 0.614985L12.8815 2.07684ZM6.78237 0.614985C3.73373 1.31598 1.34276 3.65252 0.62347 6.65843L2.08229 7.00752C2.66599 4.56823 4.61228 2.65311 7.1185 2.07684L6.78237 0.614985ZM12.8305 19C12.8305 17.5363 12.8322 16.5154 12.9378 15.7451C13.0403 14.998 13.2278 14.5993 13.5196 14.3132L12.4696 13.242C11.8474 13.852 11.5778 14.6223 11.4518 15.5413C11.3289 16.4372 11.3305 17.5795 11.3305 19H12.8305ZM18.3222 12.1316C16.8718 12.1316 15.71 12.13 14.7998 12.25C13.8695 12.3726 13.0897 12.6341 12.4696 13.242L13.5196 14.3132C13.8135 14.0251 14.2264 13.8385 14.9958 13.7371C15.7852 13.6331 16.8302 13.6316 18.3222 13.6316V12.1316Z" fill="#949494"/>
<path d="M7 7H10M7 10H12" stroke="#949494" stroke-width="1.5" stroke-linecap="round"/>
</svg>
