<svg width="20" height="20" viewBox="0 0 20 20" fill="none" xmlns="http://www.w3.org/2000/svg">
<path d="M1.35288 13.0496L0.622697 13.2209L1.35288 13.0496ZM1.35288 6.95043L0.622697 6.77915L0.622697 6.77915L1.35288 6.95043ZM18.6471 6.95044L17.9169 7.12171L18.6471 6.95044ZM18.6471 13.0496L17.9169 12.8783L18.6471 13.0496ZM13.0496 18.6471L12.8783 17.9169L12.8783 17.9169L13.0496 18.6471ZM6.95044 18.6471L7.12171 17.9169L6.95044 18.6471ZM6.95043 1.35288L7.12171 2.08306L6.95043 1.35288ZM13.0496 1.35288L12.8783 2.08306L13.0496 1.35288ZM5.85732 10.2227C5.54944 10.4998 5.52448 10.974 5.80157 11.2819C6.07867 11.5898 6.55289 11.6148 6.86077 11.3377L5.85732 10.2227ZM8.06556 9.24435L8.56728 9.80182L8.56728 9.80182L8.06556 9.24435ZM9.62702 9.44053L10.2511 9.02451L10.2511 9.02451L9.62702 9.44053ZM10.373 10.5595L9.74894 10.9755L9.74894 10.9755L10.373 10.5595ZM11.9344 10.7557L11.4327 10.1982L11.9344 10.7557ZM14.1427 9.77727C14.4506 9.50017 14.4755 9.02595 14.1984 8.71807C13.9213 8.41019 13.4471 8.38523 13.1392 8.66233L14.1427 9.77727ZM11.0746 11.2875L10.9811 12.0316L10.9811 12.0316L11.0746 11.2875ZM8.92544 8.7125L8.83194 9.45665L8.83194 9.45665L8.92544 8.7125ZM2.08306 12.8783C1.63898 10.9851 1.63898 9.01488 2.08306 7.12171L0.622697 6.77915C0.125768 8.89763 0.125768 11.1024 0.622697 13.2209L2.08306 12.8783ZM17.9169 7.12171C18.361 9.01488 18.361 10.9851 17.9169 12.8783L19.3773 13.2208C19.8742 11.1024 19.8742 8.89764 19.3773 6.77916L17.9169 7.12171ZM12.8783 17.9169C10.9851 18.361 9.01488 18.361 7.12171 17.9169L6.77916 19.3773C8.89764 19.8742 11.1024 19.8742 13.2208 19.3773L12.8783 17.9169ZM7.12171 2.08306C9.01488 1.63898 10.9851 1.63898 12.8783 2.08306L13.2208 0.622696C11.1024 0.125768 8.89764 0.125768 6.77916 0.622696L7.12171 2.08306ZM7.12171 17.9169C4.62161 17.3305 2.6695 15.3784 2.08306 12.8783L0.622697 13.2209C1.33924 16.2756 3.72441 18.6608 6.77916 19.3773L7.12171 17.9169ZM13.2208 19.3773C16.2756 18.6608 18.6608 16.2756 19.3773 13.2208L17.9169 12.8783C17.3305 15.3784 15.3784 17.3305 12.8783 17.9169L13.2208 19.3773ZM12.8783 2.08306C15.3784 2.6695 17.3305 4.62161 17.9169 7.12171L19.3773 6.77916C18.6608 3.72441 16.2756 1.33924 13.2208 0.622696L12.8783 2.08306ZM6.77916 0.622696C3.72441 1.33924 1.33924 3.72441 0.622697 6.77915L2.08306 7.12171C2.6695 4.6216 4.62161 2.6695 7.12171 2.08306L6.77916 0.622696ZM6.86077 11.3377L8.56728 9.80182L7.56383 8.68687L5.85732 10.2227L6.86077 11.3377ZM9.00298 9.85656L9.74894 10.9755L10.997 10.1434L10.2511 9.02451L9.00298 9.85656ZM12.4362 11.3131L14.1427 9.77727L13.1392 8.66233L11.4327 10.1982L12.4362 11.3131ZM9.74894 10.9755C9.89153 11.1894 10.0413 11.4173 10.1919 11.5861C10.3566 11.7708 10.6072 11.9847 10.9811 12.0316L11.1681 10.5433C11.227 10.5508 11.277 10.572 11.31 10.5929C11.336 10.6094 11.3372 10.6167 11.3114 10.5878C11.2857 10.5589 11.2487 10.5118 11.1933 10.4333C11.1382 10.3552 11.0762 10.2623 10.997 10.1434L9.74894 10.9755ZM11.4327 10.1982C11.3266 10.2937 11.2435 10.3684 11.1708 10.4304C11.0977 10.4929 11.0503 10.5293 11.0181 10.551C10.9861 10.5725 10.989 10.5658 11.0183 10.5562C11.0554 10.5442 11.1091 10.5359 11.1681 10.5433L10.9811 12.0316C11.3549 12.0786 11.6507 11.9334 11.8559 11.7952C12.0436 11.6688 12.2451 11.4851 12.4362 11.3131L11.4327 10.1982ZM8.56728 9.80182C8.67342 9.70629 8.75649 9.6316 8.82915 9.56957C8.90227 9.50714 8.94973 9.47068 8.98186 9.44905C9.01392 9.42746 9.01103 9.43424 8.98173 9.44376C8.94464 9.45581 8.89087 9.46406 8.83194 9.45665L9.01894 7.96835C8.64511 7.92139 8.34931 8.06662 8.14408 8.20481C7.95642 8.33117 7.7549 8.51491 7.56383 8.68687L8.56728 9.80182ZM10.2511 9.02451C10.1085 8.81062 9.95867 8.58274 9.8081 8.41389C9.64344 8.22922 9.39276 8.01532 9.01893 7.96835L8.83194 9.45665C8.773 9.44925 8.72295 9.42796 8.68999 9.4071C8.66396 9.39063 8.66283 9.38335 8.68856 9.4122C8.71434 9.44111 8.7513 9.48818 8.80671 9.56675C8.86177 9.64483 8.92377 9.73774 9.00298 9.85656L10.2511 9.02451Z" fill="#949494"/>
</svg>
