<svg width="18" height="20" viewBox="0 0 18 20" fill="none" xmlns="http://www.w3.org/2000/svg">
<path d="M1.6531 15.0307L0.958497 15.3136L0.958497 15.3136L1.6531 15.0307ZM1.30609 9.40765L2.03001 9.60372L1.30609 9.40765ZM16.6939 9.40764L15.97 9.60371L16.6939 9.40764ZM16.3469 15.0307L17.0415 15.3136L17.0415 15.3136L16.3469 15.0307ZM11.0365 18.842L10.9207 18.1009L10.9207 18.1009L11.0365 18.842ZM6.96352 18.842L6.84775 19.583L6.84775 19.583L6.96352 18.842ZM5.65619 5.61682L5.50688 4.88184L5.50688 4.88184L5.65619 5.61682ZM12.3438 5.61682L12.1945 6.35181L12.1945 6.35181L12.3438 5.61682ZM6.21479 18.725L6.33056 17.984L6.33056 17.984L6.21479 18.725ZM1.74598 15.2587L2.44059 14.9758L2.44058 14.9758L1.74598 15.2587ZM11.7852 18.725L11.901 19.466L11.901 19.466L11.7852 18.725ZM16.254 15.2587L15.5594 14.9758L15.5594 14.9758L16.254 15.2587ZM12.6199 5.67292L12.7692 4.93793L12.7692 4.93793L12.6199 5.67292ZM5.38009 5.67291L5.5294 6.4079L5.5294 6.4079L5.38009 5.67291ZM3.89401 5.44547C3.89401 5.85968 4.2298 6.19547 4.64401 6.19547C5.05822 6.19547 5.39401 5.85968 5.39401 5.44547H3.89401ZM4.64401 5.20939L3.89401 5.20939V5.20939H4.64401ZM7.91878 1.14409L7.73697 0.416459L7.73696 0.41646L7.91878 1.14409ZM7.98712 1.12701L8.16893 1.85464L8.16894 1.85464L7.98712 1.12701ZM11.9208 2.15264L11.4015 2.69381L11.4015 2.69381L11.9208 2.15264ZM11.657 2.93894C11.9559 3.22572 12.4306 3.21592 12.7174 2.91704C13.0042 2.61816 12.9944 2.14339 12.6955 1.8566L11.657 2.93894ZM10.0154 1.1175L10.1904 0.388192L10.1904 0.388192L10.0154 1.1175ZM5.5294 6.4079L5.80551 6.35181L5.50688 4.88184L5.23077 4.93793L5.5294 6.4079ZM12.1945 6.35181L12.4706 6.4079L12.7692 4.93793L12.4931 4.88184L12.1945 6.35181ZM11.6694 17.984L10.9207 18.1009L11.1522 19.583L11.901 19.466L11.6694 17.984ZM7.07928 18.1009L6.33056 17.984L6.09902 19.466L6.84775 19.583L7.07928 18.1009ZM15.6523 14.7478L15.5594 14.9758L16.9486 15.5416L17.0415 15.3136L15.6523 14.7478ZM2.44058 14.9758L2.3477 14.7478L0.958497 15.3136L1.05138 15.5416L2.44058 14.9758ZM2.3477 14.7478C1.67942 13.1069 1.56861 11.3073 2.03001 9.60372L0.582174 9.21158C0.0346138 11.2333 0.166693 13.3694 0.958497 15.3136L2.3477 14.7478ZM15.97 9.60371C16.4314 11.3073 16.3206 13.1069 15.6523 14.7478L17.0415 15.3136C17.8333 13.3694 17.9654 11.2333 17.4178 9.21157L15.97 9.60371ZM10.9207 18.1009C9.64863 18.2997 8.35134 18.2997 7.07928 18.1009L6.84775 19.583C8.27323 19.8057 9.72674 19.8057 11.1522 19.583L10.9207 18.1009ZM5.80551 6.35181C7.91174 5.92392 10.0883 5.92392 12.1945 6.35181L12.4931 4.88184C10.1898 4.41392 7.81019 4.41392 5.50688 4.88184L5.80551 6.35181ZM6.33056 17.984C4.55581 17.7067 3.08337 16.5541 2.44059 14.9758L1.05138 15.5416C1.90105 17.6278 3.8268 19.111 6.09902 19.466L6.33056 17.984ZM11.901 19.466C14.1732 19.111 16.0989 17.6278 16.9486 15.5416L15.5594 14.9758C14.9166 16.5541 13.4442 17.7067 11.6694 17.984L11.901 19.466ZM12.4706 6.4079C14.1917 6.75754 15.5371 8.00521 15.97 9.60371L17.4178 9.21157C16.8296 7.03976 15.02 5.39517 12.7692 4.93793L12.4706 6.4079ZM5.23077 4.93793C2.98003 5.39517 1.1704 7.03976 0.582174 9.21158L2.03001 9.60372C2.46295 8.00521 3.80831 6.75754 5.5294 6.4079L5.23077 4.93793ZM5.39401 5.44547V5.20939H3.89401V5.44547H5.39401ZM8.10059 1.87172L8.16893 1.85464L7.80531 0.399383L7.73697 0.416459L8.10059 1.87172ZM11.4015 2.69381L11.657 2.93894L12.6955 1.8566L12.44 1.61147L11.4015 2.69381ZM9.84047 1.84681C10.4346 1.98934 10.9737 2.28335 11.4015 2.69381L12.44 1.61147C11.8166 1.01323 11.0385 0.591644 10.1904 0.388192L9.84047 1.84681ZM8.16894 1.85464C8.71646 1.71783 9.29151 1.71512 9.84047 1.84681L10.1904 0.388192C9.4068 0.200227 8.58699 0.204062 7.80531 0.399383L8.16894 1.85464ZM5.39401 5.20939C5.39401 3.66025 6.487 2.27491 8.10059 1.87172L7.73696 0.41646C5.49317 0.977121 3.89401 2.93383 3.89401 5.20939L5.39401 5.20939Z" fill="#949494"/>
<path d="M9 11.5L9 13.5" stroke="#949494" stroke-width="1.5" stroke-linecap="round"/>
</svg>
