<svg width="16" height="16" viewBox="0 0 16 16" fill="none" xmlns="http://www.w3.org/2000/svg">
<path d="M5.27929 5.71173H10.2465M5.27929 8.39985H8.44027M8.91472 13.3875H9.78879C12.1661 13.3875 14.2342 11.7722 14.7922 9.4794C15.0693 8.34084 15.0693 7.1532 14.7922 6.01465L14.719 5.71402C14.1812 3.50412 12.4281 1.78714 10.194 1.28205L9.88014 1.2111C8.63514 0.929634 7.34227 0.929633 6.09726 1.2111L5.91357 1.25263C3.59969 1.77574 1.7841 3.554 1.22706 5.84277C0.922465 7.09429 0.925248 8.41119 1.22984 9.66271C1.79559 11.9873 3.45979 13.9218 5.69228 14.8233L5.78959 14.8626C6.75568 15.2527 7.86238 14.7829 8.25879 13.8257C8.36789 13.5623 8.62767 13.3875 8.91472 13.3875Z" stroke="#464646" stroke-width="1.5" stroke-linecap="round"/>
</svg>
