<svg width="18" height="22" viewBox="0 0 18 22" fill="none" xmlns="http://www.w3.org/2000/svg">
<path d="M9 1V2.07172M5.80971 16.897C7.92993 17.1353 10.0701 17.1353 12.1903 16.897C12.1753 17.1032 12.1429 17.308 12.0935 17.509L12.0061 17.8646C11.7321 18.9786 10.8619 19.8457 9.75081 20.1114C9.25717 20.2295 8.74283 20.2295 8.24919 20.1114C7.13814 19.8457 6.26787 18.9786 5.99394 17.8646L5.90651 17.509C5.85707 17.308 5.82471 17.1032 5.80971 16.897ZM2.62965 7.00809C3.22093 4.82585 4.89335 3.08346 7.03561 2.38904C8.35223 1.96225 9.78393 1.96155 11.0982 2.3956C13.2025 3.09056 14.8133 4.80889 15.3779 6.9609L16 9.33196L16.4985 11.5893C16.652 12.2846 16.8609 12.9998 16.971 13.7033C16.9901 13.8253 17 13.9504 17 14.0777C17 15.2151 16.2026 16.195 15.0932 16.421L14.7011 16.5009C10.9387 17.2674 7.06134 17.2674 3.29886 16.5009L2.90676 16.421C1.79738 16.195 1 15.2151 1 14.0777C1 13.9504 1.00991 13.8253 1.02901 13.7033C1.13913 12.9998 1.34801 12.2846 1.50154 11.5893L2 9.33196L2.62965 7.00809Z" stroke="#464646" stroke-width="2" stroke-linecap="round"/>
</svg>
