<svg width="20" height="20" viewBox="0 0 20 20" fill="none" xmlns="http://www.w3.org/2000/svg">
<path d="M1.35288 6.95043C2.00437 4.17301 4.17301 2.00437 6.95043 1.35288C8.95626 0.882375 11.0437 0.882374 13.0496 1.35288C15.827 2.00437 17.9956 4.17301 18.6471 6.95044C19.1176 8.95626 19.1176 11.0437 18.6471 13.0496C17.9956 15.827 15.827 17.9956 13.0496 18.6471C11.0437 19.1176 8.95626 19.1176 6.95044 18.6471C4.17301 17.9956 2.00437 15.827 1.35288 13.0496C0.882374 11.0437 0.882374 8.95626 1.35288 6.95043Z" stroke="#454545" stroke-width="1.5"/>
<path d="M8.18218 9.29586C8.38546 8.78766 8.78815 8.38497 9.29635 8.18169L11.3341 7.3666C12.1504 7.04008 12.9605 7.85016 12.6339 8.66647L11.8188 10.7042C11.6156 11.2124 11.2129 11.6151 10.7047 11.8184L8.66696 12.6334C7.85065 12.96 7.04057 12.1499 7.36709 11.3336L8.18218 9.29586Z" stroke="#454545" stroke-width="1.5" stroke-linecap="round" stroke-linejoin="round"/>
</svg>
