<svg width="37" height="49" viewBox="0 0 37 49" fill="none" xmlns="http://www.w3.org/2000/svg">
<path d="M31.1009 15.5684C30.7926 15.2536 30.3601 15.1106 29.9369 15.1837C29.5129 15.2566 29.1467 15.5363 28.95 15.9376C28.2736 17.3185 27.4143 18.5875 26.4034 19.7092C26.5042 18.8989 26.5549 18.0837 26.5549 17.2664C26.5549 15.698 26.3549 14.0841 25.9601 12.4688C24.6623 7.16336 21.2592 2.67658 16.6235 0.159049C16.2199 -0.0600614 15.7391 -0.0523683 15.342 0.179564C14.9449 0.411591 14.6849 0.836989 14.6492 1.31282C14.2879 6.13419 11.9244 10.5206 8.16118 13.3501C8.11137 13.3878 8.06193 13.426 8.01249 13.464C7.91008 13.5427 7.81354 13.6172 7.72333 13.6797C7.70923 13.6896 7.69522 13.6996 7.68148 13.71C5.31472 15.4905 3.36186 17.8639 2.03376 20.5745C0.684249 23.3315 0 26.2901 0 29.3678C0 30.9357 0.200032 32.5496 0.594582 34.1652C2.6767 42.6805 9.96969 48.6277 18.3298 48.6277C28.4364 48.6277 36.6586 39.9877 36.6586 29.3678C36.6586 24.1309 34.6848 19.2301 31.1009 15.5684V15.5684Z" fill="#3772FF"/>
<ellipse cx="17.6096" cy="29.4717" rx="5.60963" ry="5.89428" fill="#F8F8F8"/>
</svg>
